<mxfile host="app.diagrams.net" modified="2022-05-30T03:25:25.287Z" agent="5.0 (X11; Linux x86_64) AppleWebKit/537.36 (KHTML, like Gecko) Chrome/101.0.4951.64 Safari/537.36" etag="WGTG36DmY88ZXrQja3Pm" version="17.1.0" type="github">
  <diagram id="IWzyp3ph7pAV5oZI-1pD" name="Page-1">
    <mxGraphModel dx="948" dy="1567" grid="1" gridSize="10" guides="1" tooltips="1" connect="1" arrows="1" fold="1" page="1" pageScale="1" pageWidth="850" pageHeight="1100" math="0" shadow="0">
      <root>
        <mxCell id="0" />
        <mxCell id="1" parent="0" />
        <mxCell id="Bx6MxtLKh7tmBB8_SJCt-1" value="Сайт&amp;nbsp;&lt;span id=&quot;docs-internal-guid-dcc1c112-7fff-b275-3c7f-2748ceb0850f&quot;&gt;&lt;span style=&quot;font-size: 12pt ; font-family: &amp;#34;times new roman&amp;#34; ; background-color: transparent ; vertical-align: baseline&quot;&gt;«Flies&lt;/span&gt;&lt;/span&gt;&lt;span id=&quot;docs-internal-guid-b222d9b3-7fff-0845-933d-d96e30af8130&quot;&gt;&lt;span style=&quot;font-size: 12pt ; font-family: &amp;#34;times new roman&amp;#34; ; background-color: transparent ; vertical-align: baseline&quot;&gt;»&lt;/span&gt;&lt;/span&gt;" style="rounded=1;whiteSpace=wrap;html=1;" vertex="1" parent="1">
          <mxGeometry x="365" y="290" width="175" height="80" as="geometry" />
        </mxCell>
        <mxCell id="Bx6MxtLKh7tmBB8_SJCt-2" value="" style="endArrow=classic;html=1;rounded=0;entryX=0.25;entryY=0;entryDx=0;entryDy=0;" edge="1" parent="1" target="Bx6MxtLKh7tmBB8_SJCt-1">
          <mxGeometry width="50" height="50" relative="1" as="geometry">
            <mxPoint x="409" y="240" as="sourcePoint" />
            <mxPoint x="460" y="310" as="targetPoint" />
          </mxGeometry>
        </mxCell>
        <mxCell id="Bx6MxtLKh7tmBB8_SJCt-3" value="ГОСТы" style="text;html=1;strokeColor=none;fillColor=none;align=center;verticalAlign=middle;whiteSpace=wrap;rounded=0;" vertex="1" parent="1">
          <mxGeometry x="380" y="220" width="60" height="30" as="geometry" />
        </mxCell>
        <mxCell id="Bx6MxtLKh7tmBB8_SJCt-4" value="" style="endArrow=classic;html=1;rounded=0;entryX=0.771;entryY=0;entryDx=0;entryDy=0;entryPerimeter=0;" edge="1" parent="1" target="Bx6MxtLKh7tmBB8_SJCt-1">
          <mxGeometry width="50" height="50" relative="1" as="geometry">
            <mxPoint x="500" y="240" as="sourcePoint" />
            <mxPoint x="500" y="270" as="targetPoint" />
          </mxGeometry>
        </mxCell>
        <mxCell id="Bx6MxtLKh7tmBB8_SJCt-5" value="&lt;font style=&quot;font-size: 8px&quot;&gt;Правила и процедуры работы&lt;/font&gt;" style="text;html=1;strokeColor=none;fillColor=none;align=center;verticalAlign=middle;whiteSpace=wrap;rounded=0;" vertex="1" parent="1">
          <mxGeometry x="406" y="217" width="190" height="30" as="geometry" />
        </mxCell>
        <mxCell id="Bx6MxtLKh7tmBB8_SJCt-6" value="" style="endArrow=classic;html=1;rounded=0;fontSize=8;entryX=0;entryY=0.25;entryDx=0;entryDy=0;" edge="1" parent="1" target="Bx6MxtLKh7tmBB8_SJCt-1">
          <mxGeometry width="50" height="50" relative="1" as="geometry">
            <mxPoint x="270" y="310" as="sourcePoint" />
            <mxPoint x="310" y="280" as="targetPoint" />
          </mxGeometry>
        </mxCell>
        <mxCell id="Bx6MxtLKh7tmBB8_SJCt-7" value="Заказы клиентов" style="text;html=1;strokeColor=none;fillColor=none;align=center;verticalAlign=middle;whiteSpace=wrap;rounded=0;fontSize=8;" vertex="1" parent="1">
          <mxGeometry x="220" y="290" width="130" height="30" as="geometry" />
        </mxCell>
        <mxCell id="Bx6MxtLKh7tmBB8_SJCt-9" value="" style="endArrow=classic;html=1;rounded=0;fontSize=8;entryX=0;entryY=0.75;entryDx=0;entryDy=0;" edge="1" parent="1" target="Bx6MxtLKh7tmBB8_SJCt-1">
          <mxGeometry width="50" height="50" relative="1" as="geometry">
            <mxPoint x="270" y="350" as="sourcePoint" />
            <mxPoint x="280" y="320" as="targetPoint" />
          </mxGeometry>
        </mxCell>
        <mxCell id="Bx6MxtLKh7tmBB8_SJCt-10" value="Информация об услугах" style="text;html=1;strokeColor=none;fillColor=none;align=center;verticalAlign=middle;whiteSpace=wrap;rounded=0;fontSize=8;" vertex="1" parent="1">
          <mxGeometry x="239" y="329" width="120" height="30" as="geometry" />
        </mxCell>
        <mxCell id="Bx6MxtLKh7tmBB8_SJCt-12" value="" style="endArrow=classic;html=1;rounded=0;fontSize=8;entryX=0.25;entryY=1;entryDx=0;entryDy=0;" edge="1" parent="1">
          <mxGeometry width="50" height="50" relative="1" as="geometry">
            <mxPoint x="452.33" y="420" as="sourcePoint" />
            <mxPoint x="452.33" y="370" as="targetPoint" />
          </mxGeometry>
        </mxCell>
        <mxCell id="Bx6MxtLKh7tmBB8_SJCt-13" value="" style="endArrow=classic;html=1;rounded=0;fontSize=8;entryX=0.25;entryY=1;entryDx=0;entryDy=0;" edge="1" parent="1">
          <mxGeometry width="50" height="50" relative="1" as="geometry">
            <mxPoint x="380" y="420" as="sourcePoint" />
            <mxPoint x="380" y="370" as="targetPoint" />
          </mxGeometry>
        </mxCell>
        <mxCell id="Bx6MxtLKh7tmBB8_SJCt-14" value="" style="endArrow=classic;html=1;rounded=0;fontSize=8;entryX=0.25;entryY=1;entryDx=0;entryDy=0;" edge="1" parent="1">
          <mxGeometry width="50" height="50" relative="1" as="geometry">
            <mxPoint x="520" y="420" as="sourcePoint" />
            <mxPoint x="520" y="370" as="targetPoint" />
          </mxGeometry>
        </mxCell>
        <mxCell id="Bx6MxtLKh7tmBB8_SJCt-15" value="Дизайнер сайта" style="text;html=1;strokeColor=none;fillColor=none;align=center;verticalAlign=middle;whiteSpace=wrap;rounded=0;fontSize=8;" vertex="1" parent="1">
          <mxGeometry x="345" y="410" width="80" height="30" as="geometry" />
        </mxCell>
        <mxCell id="Bx6MxtLKh7tmBB8_SJCt-16" value="Тестировщики" style="text;html=1;strokeColor=none;fillColor=none;align=center;verticalAlign=middle;whiteSpace=wrap;rounded=0;fontSize=8;" vertex="1" parent="1">
          <mxGeometry x="412.5" y="410" width="80" height="30" as="geometry" />
        </mxCell>
        <mxCell id="Bx6MxtLKh7tmBB8_SJCt-17" value="Программист" style="text;html=1;strokeColor=none;fillColor=none;align=center;verticalAlign=middle;whiteSpace=wrap;rounded=0;fontSize=8;" vertex="1" parent="1">
          <mxGeometry x="480" y="410" width="80" height="30" as="geometry" />
        </mxCell>
        <mxCell id="Bx6MxtLKh7tmBB8_SJCt-18" value="" style="endArrow=classic;html=1;rounded=0;fontSize=8;" edge="1" parent="1">
          <mxGeometry width="50" height="50" relative="1" as="geometry">
            <mxPoint x="540" y="310" as="sourcePoint" />
            <mxPoint x="630" y="310" as="targetPoint" />
          </mxGeometry>
        </mxCell>
        <mxCell id="Bx6MxtLKh7tmBB8_SJCt-19" value="" style="endArrow=classic;html=1;rounded=0;fontSize=8;" edge="1" parent="1">
          <mxGeometry width="50" height="50" relative="1" as="geometry">
            <mxPoint x="540" y="350" as="sourcePoint" />
            <mxPoint x="630" y="350" as="targetPoint" />
          </mxGeometry>
        </mxCell>
        <mxCell id="Bx6MxtLKh7tmBB8_SJCt-22" value="Создание сайта" style="text;html=1;strokeColor=none;fillColor=none;align=center;verticalAlign=middle;whiteSpace=wrap;rounded=0;fontSize=8;" vertex="1" parent="1">
          <mxGeometry x="569" y="284" width="100" height="30" as="geometry" />
        </mxCell>
        <mxCell id="Bx6MxtLKh7tmBB8_SJCt-23" value="Продажа и доставка услуг" style="text;html=1;strokeColor=none;fillColor=none;align=center;verticalAlign=middle;whiteSpace=wrap;rounded=0;fontSize=8;" vertex="1" parent="1">
          <mxGeometry x="578" y="325" width="122" height="30" as="geometry" />
        </mxCell>
        <mxCell id="Bx6MxtLKh7tmBB8_SJCt-36" style="edgeStyle=orthogonalEdgeStyle;rounded=1;orthogonalLoop=1;jettySize=auto;html=1;exitX=1;exitY=0.25;exitDx=0;exitDy=0;entryX=0;entryY=0.5;entryDx=0;entryDy=0;fontSize=10;" edge="1" parent="1" source="Bx6MxtLKh7tmBB8_SJCt-24" target="Bx6MxtLKh7tmBB8_SJCt-25">
          <mxGeometry relative="1" as="geometry" />
        </mxCell>
        <mxCell id="Bx6MxtLKh7tmBB8_SJCt-24" value="Разработка технического задания" style="rounded=0;whiteSpace=wrap;html=1;fontSize=10;" vertex="1" parent="1">
          <mxGeometry x="160" y="-170" width="70" height="100" as="geometry" />
        </mxCell>
        <mxCell id="Bx6MxtLKh7tmBB8_SJCt-37" style="edgeStyle=orthogonalEdgeStyle;rounded=1;orthogonalLoop=1;jettySize=auto;html=1;exitX=1;exitY=0.25;exitDx=0;exitDy=0;entryX=-0.029;entryY=0.463;entryDx=0;entryDy=0;entryPerimeter=0;fontSize=10;" edge="1" parent="1" source="Bx6MxtLKh7tmBB8_SJCt-25" target="Bx6MxtLKh7tmBB8_SJCt-26">
          <mxGeometry relative="1" as="geometry" />
        </mxCell>
        <mxCell id="Bx6MxtLKh7tmBB8_SJCt-25" value="Создание карт и макета сайта" style="rounded=0;whiteSpace=wrap;html=1;fontSize=10;" vertex="1" parent="1">
          <mxGeometry x="280" y="-140" width="70" height="100" as="geometry" />
        </mxCell>
        <mxCell id="Bx6MxtLKh7tmBB8_SJCt-38" style="edgeStyle=orthogonalEdgeStyle;rounded=1;orthogonalLoop=1;jettySize=auto;html=1;exitX=1;exitY=0.25;exitDx=0;exitDy=0;entryX=0;entryY=0.5;entryDx=0;entryDy=0;fontSize=10;" edge="1" parent="1" source="Bx6MxtLKh7tmBB8_SJCt-26" target="Bx6MxtLKh7tmBB8_SJCt-27">
          <mxGeometry relative="1" as="geometry" />
        </mxCell>
        <mxCell id="Bx6MxtLKh7tmBB8_SJCt-26" value="Разработка кода" style="rounded=0;whiteSpace=wrap;html=1;fontSize=10;" vertex="1" parent="1">
          <mxGeometry x="400" y="-110" width="70" height="100" as="geometry" />
        </mxCell>
        <mxCell id="Bx6MxtLKh7tmBB8_SJCt-39" style="edgeStyle=orthogonalEdgeStyle;rounded=1;orthogonalLoop=1;jettySize=auto;html=1;exitX=1;exitY=0.25;exitDx=0;exitDy=0;entryX=0;entryY=0.5;entryDx=0;entryDy=0;fontSize=10;" edge="1" parent="1" source="Bx6MxtLKh7tmBB8_SJCt-27" target="Bx6MxtLKh7tmBB8_SJCt-28">
          <mxGeometry relative="1" as="geometry" />
        </mxCell>
        <mxCell id="Bx6MxtLKh7tmBB8_SJCt-27" value="Публикация сайта" style="rounded=0;whiteSpace=wrap;html=1;fontSize=10;" vertex="1" parent="1">
          <mxGeometry x="520" y="-80" width="70" height="100" as="geometry" />
        </mxCell>
        <mxCell id="Bx6MxtLKh7tmBB8_SJCt-40" style="edgeStyle=orthogonalEdgeStyle;rounded=1;orthogonalLoop=1;jettySize=auto;html=1;exitX=1;exitY=0.25;exitDx=0;exitDy=0;entryX=0;entryY=0.5;entryDx=0;entryDy=0;fontSize=10;" edge="1" parent="1" source="Bx6MxtLKh7tmBB8_SJCt-28" target="Bx6MxtLKh7tmBB8_SJCt-29">
          <mxGeometry relative="1" as="geometry" />
        </mxCell>
        <mxCell id="Bx6MxtLKh7tmBB8_SJCt-28" value="Тестирование сайта" style="rounded=0;whiteSpace=wrap;html=1;fontSize=10;" vertex="1" parent="1">
          <mxGeometry x="640" y="-50" width="70" height="100" as="geometry" />
        </mxCell>
        <mxCell id="Bx6MxtLKh7tmBB8_SJCt-29" value="Передача сайта клиенту" style="rounded=0;whiteSpace=wrap;html=1;fontSize=10;" vertex="1" parent="1">
          <mxGeometry x="760" y="-20" width="70" height="100" as="geometry" />
        </mxCell>
        <mxCell id="Bx6MxtLKh7tmBB8_SJCt-30" value="" style="endArrow=classic;html=1;rounded=0;fontSize=10;entryX=0.571;entryY=-0.03;entryDx=0;entryDy=0;entryPerimeter=0;" edge="1" parent="1" target="Bx6MxtLKh7tmBB8_SJCt-28">
          <mxGeometry width="50" height="50" relative="1" as="geometry">
            <mxPoint x="680" y="-120" as="sourcePoint" />
            <mxPoint x="730" y="-200" as="targetPoint" />
          </mxGeometry>
        </mxCell>
        <mxCell id="Bx6MxtLKh7tmBB8_SJCt-31" value="Модератор" style="text;html=1;strokeColor=none;fillColor=none;align=center;verticalAlign=middle;whiteSpace=wrap;rounded=0;fontSize=14;" vertex="1" parent="1">
          <mxGeometry x="530" y="-170" width="60" height="30" as="geometry" />
        </mxCell>
        <mxCell id="Bx6MxtLKh7tmBB8_SJCt-33" value="" style="endArrow=classic;html=1;rounded=0;fontSize=10;entryX=0.571;entryY=-0.03;entryDx=0;entryDy=0;entryPerimeter=0;" edge="1" parent="1">
          <mxGeometry width="50" height="50" relative="1" as="geometry">
            <mxPoint x="560.0300000000001" y="-140" as="sourcePoint" />
            <mxPoint x="560.0000000000001" y="-83" as="targetPoint" />
          </mxGeometry>
        </mxCell>
        <mxCell id="Bx6MxtLKh7tmBB8_SJCt-35" value="Тестировщики" style="text;html=1;strokeColor=none;fillColor=none;align=center;verticalAlign=middle;whiteSpace=wrap;rounded=0;fontSize=14;" vertex="1" parent="1">
          <mxGeometry x="630" y="-150" width="90" height="30" as="geometry" />
        </mxCell>
        <mxCell id="Bx6MxtLKh7tmBB8_SJCt-41" value="" style="endArrow=classic;html=1;rounded=0;fontSize=10;entryX=0.5;entryY=1;entryDx=0;entryDy=0;" edge="1" parent="1" target="Bx6MxtLKh7tmBB8_SJCt-25">
          <mxGeometry width="50" height="50" relative="1" as="geometry">
            <mxPoint x="315" y="10" as="sourcePoint" />
            <mxPoint x="340" y="-30" as="targetPoint" />
          </mxGeometry>
        </mxCell>
        <mxCell id="Bx6MxtLKh7tmBB8_SJCt-42" value="Дизайнер&amp;nbsp;" style="text;html=1;strokeColor=none;fillColor=none;align=center;verticalAlign=middle;whiteSpace=wrap;rounded=0;fontSize=14;" vertex="1" parent="1">
          <mxGeometry x="274" y="10" width="85" height="30" as="geometry" />
        </mxCell>
        <mxCell id="Bx6MxtLKh7tmBB8_SJCt-43" value="" style="endArrow=classic;html=1;rounded=0;fontSize=14;" edge="1" parent="1">
          <mxGeometry width="50" height="50" relative="1" as="geometry">
            <mxPoint x="200" y="70" as="sourcePoint" />
            <mxPoint x="200" y="-70" as="targetPoint" />
          </mxGeometry>
        </mxCell>
        <mxCell id="Bx6MxtLKh7tmBB8_SJCt-44" value="" style="endArrow=classic;html=1;rounded=0;fontSize=14;" edge="1" parent="1">
          <mxGeometry width="50" height="50" relative="1" as="geometry">
            <mxPoint x="200" y="70" as="sourcePoint" />
            <mxPoint x="760" y="70" as="targetPoint" />
          </mxGeometry>
        </mxCell>
        <mxCell id="Bx6MxtLKh7tmBB8_SJCt-46" value="Заказчик сайта" style="text;html=1;strokeColor=none;fillColor=none;align=center;verticalAlign=middle;whiteSpace=wrap;rounded=0;fontSize=14;" vertex="1" parent="1">
          <mxGeometry x="190" y="40" width="130" height="30" as="geometry" />
        </mxCell>
        <mxCell id="Bx6MxtLKh7tmBB8_SJCt-47" value="" style="endArrow=classic;html=1;rounded=1;fontSize=14;spacing=2;" edge="1" parent="1">
          <mxGeometry width="50" height="50" relative="1" as="geometry">
            <mxPoint x="30" y="-160" as="sourcePoint" />
            <mxPoint x="160" y="-160" as="targetPoint" />
          </mxGeometry>
        </mxCell>
        <mxCell id="Bx6MxtLKh7tmBB8_SJCt-48" value="Разработчики сайта" style="edgeLabel;html=1;align=center;verticalAlign=middle;resizable=0;points=[];fontSize=10;" vertex="1" connectable="0" parent="Bx6MxtLKh7tmBB8_SJCt-47">
          <mxGeometry x="-0.437" relative="1" as="geometry">
            <mxPoint x="23" as="offset" />
          </mxGeometry>
        </mxCell>
        <mxCell id="Bx6MxtLKh7tmBB8_SJCt-51" value="" style="endArrow=classic;html=1;rounded=1;fontSize=14;" edge="1" parent="1">
          <mxGeometry width="50" height="50" relative="1" as="geometry">
            <mxPoint x="30" y="-110" as="sourcePoint" />
            <mxPoint x="160" y="-110" as="targetPoint" />
          </mxGeometry>
        </mxCell>
        <mxCell id="Bx6MxtLKh7tmBB8_SJCt-52" value="Требования клиента" style="edgeLabel;html=1;align=center;verticalAlign=middle;resizable=0;points=[];fontSize=10;" vertex="1" connectable="0" parent="Bx6MxtLKh7tmBB8_SJCt-51">
          <mxGeometry x="-0.437" relative="1" as="geometry">
            <mxPoint x="23" as="offset" />
          </mxGeometry>
        </mxCell>
      </root>
    </mxGraphModel>
  </diagram>
</mxfile>
